<?xml version="1.0" standalone="no"?><!DOCTYPE svg PUBLIC "-//W3C//DTD SVG 1.1//EN" "http://www.w3.org/Graphics/SVG/1.1/DTD/svg11.dtd"><svg t="1728550998326" class="icon" viewBox="0 0 1024 1024" version="1.1" xmlns="http://www.w3.org/2000/svg" p-id="1502" xmlns:xlink="http://www.w3.org/1999/xlink" width="200" height="200"><path d="M835.518 254.845H653.021l-30.163-188.53c-0.753-6.788-3.771-12.819-9.05-17.344-4.525-5.279-11.312-9.05-18.098-9.05H432.819c-8.294 0-15.084 4.525-18.098 9.05-4.525 3.771-7.54 9.05-8.294 15.084l-30.163 190.794H177.929c-10.559 0-18.853 8.294-18.853 18.853s8.294 18.853 18.853 18.853H370.23L269.177 924.511c-2.26 13.573 6.032 26.395 18.853 28.657s24.885-7.54 27.149-21.115l24.132-150.825c3.018 1.508 6.032 2.26 9.804 2.26h342.373l24.132 148.563c2.26 13.573 14.33 23.378 26.395 21.115 12.819-2.26 21.115-15.084 18.853-28.657l-101.053-632.71h176.466c10.559 0 18.853-8.294 18.853-18.853-0.753-9.804-9.05-18.098-19.607-18.098z m-218.695 63.346l23.378 149.316-95.774-85.215 72.396-64.1z m-5.278 179.479h-197.58l98.791-87.477 98.791 87.477zM442.621 291.796h141.02l-70.133 62.591-70.889-62.591z m191.546 248.107l-114.626 65.61-114.626-65.61h229.253z m-95.772-286.568V85.918h40.722l27.149 168.924h-67.871v-1.508zM450.161 85.921h47.51v168.924h-74.657l27.149-168.924z m-37.706 235.285l68.625 61.084-91.248 80.69 22.624-141.775z m-39.213 248.86l104.068 59.577-125.185 70.889 21.115-130.464z m-2.262 168.172l148.563-84.463 148.563 84.463H370.981z m306.173-42.988l-115.381-66.363 95.774-55.052 19.607 121.413z" fill="" p-id="1503"></path></svg>