<?xml version="1.0" encoding="utf-8"?>
<svg version="1.1" xmlns:xlink="http://www.w3.org/1999/xlink" width="21px" height="26px" xmlns="http://www.w3.org/2000/svg">
  <defs>
    <linearGradient gradientUnits="userSpaceOnUse" x1="15.629468964135" y1="5.53170989086118" x2="4.09115776833872" y2="20.2600522128651" id="LinearGradient437">
      <stop id="Stop438" stop-color="#e87011" offset="0" />
      <stop id="Stop439" stop-color="#11a3ff" offset="1" />
    </linearGradient>
  </defs>
  <g transform="matrix(1 0 0 1 -679 -163 )">
    <path d="M 6.47640162112259 0.000147243183391765  C 8.07256853712272 0.0168594360286534  9.66892235791386 0.00837862174898873  11.2652761787051 0.00837862174898873  C 12.8616299994964 0.00837862174898873  14.4579838202876 0.0168594360286534  16.0541507362877 0.000147243183391765  C 16.3268448265036 -0.00284598538587488  16.5115067601112 0.082461028838452  16.6754222619064 0.389266957188511  C 17.1785699595496 1.33013847079587  17.6905021823744 2.26427522012227  18.2257975040869 3.17321896232397  C 18.7020309118116 3.98263785459744  18.7594106826795 4.79854207543758  18.3775641944607 5.69027475336588  C 17.5037842960649 7.73215550903638  16.635611541402 9.7780272361324  15.7704292633968 11.8261438846555  C 15.6618375797673 12.0828132344702  15.5059589839893 12.1334486844339  15.3065315718849 12.1334486844339  C 12.4702513669314 12.1339475558621  9.63415806676915 12.150410312993  6.7980647666069 12.1371902201454  C 5.99904678465134 12.1334486844339  6.06558161655994 12.0631788980404  6.39397660824716 11.141692285149  C 6.7980647666069 10.0078082802704  6.94606558099622 10.0703972636547  7.62073564082914 8.45157717139386  C 7.73920776816601 8.16731220763745  7.9489404540019 8.18966967158281  8.15061072359958 8.18991910729687  C 9.25091922880949 8.19141572158151  11.8820297249919 8.17096199302478  12.9819644206196 8.20239089300208  C 13.3228787595873 8.21211888585231  13.53389426874 8.07817190737751  13.676689529141 7.67283887195549  C 13.8327550297101 7.23058935084578  15.0235789871399 4.39883785040365  15.0235789871399 4.39883785040365  C 15.0235789871399 4.39883785040365  14.3307221295142 4.39958615754585  13.9718649306009 4.39484687897789  C 12.825204037198 4.37988073613155  9.58465325327688 4.42652521466925  8.43817926466511 4.39883785040365  C 8.09801254486172 4.39035703612399  7.94886252156334 4.58242253598564  7.79784345035398 4.9341268928747  C 5.928982444138 9.28179138973951  4.38178367397779 13.2478531202414  2.4990917132202 17.5850413171138  C 1.98510353769325 18.7693620876885  1.94940472259304 18.7603824019807  1.33859986527591 17.6661079241983  C 0.811715259162952 16.7222431820217  0.642355471704832 16.6926346668604  0.162944682531474 15.7038714961448  C -0.0577898757584308 15.2489007536158  -0.0439589212170404 14.8632731396083  0.142385155510397 14.3890958470929  C 1.70023658933485 10.4253129142371  3.38294042361463 6.55407063131452  5.01835734574593 2.64790734841699  C 5.32749787022647 1.90982707037779  5.64598363426205 1.17773324947711  5.93512534609488 0.425934007162141  C 6.05829560343034 0.10590798596445  6.20819324589309 -0.00259654967157985  6.47640162112259 0.000147243183391765  Z M 14.3826575931818 25.5326625115601  C 12.895968949185 25.5164075379971  11.4091062198669 25.5246563305518  9.92224349054857 25.5246563305518  C 8.43538076123036 25.5246563305518  6.94851803191227 25.5164075379971  5.46182938791549 25.5326625115601  C 5.20783890412281 25.5355738501091  5.03584260666719 25.452600701474  4.88316977987733 25.1541885002455  C 4.41453209490794 24.2390577498093  3.93771239983676 23.3304775111078  3.43913203960165 22.4464010385234  C 2.99556264090108 21.6591265726795  2.94211844725851 20.8655442066465  3.29777475869707 19.9982079307163  C 4.11162363582662 18.0121898174962  4.92024995331678 16.0222899195442  5.72609090566596 14.0302065176809  C 5.82723447734747 13.7805592371408  5.97242163532098 13.7313090933603  6.15817067315982 13.7313090933603  C 8.79991542405605 13.730823870269  11.4414860896308 13.7148115082516  14.0830567552053 13.7276699201745  C 14.8272715038102 13.7313090933603  14.7653001786078 13.7996564090406  14.4594292198799 14.695932599122  C 14.0830567552053 15.7987953229738  13.945207055497 15.7379186756261  13.3168114244739 17.3124503990618  C 13.2064650912824 17.5889383209962  13.0111176002517 17.5671925220622  12.8232795385569 17.5669499105165  C 11.7984392519985 17.5654942412421  9.34779198161311 17.5853883879906  8.32329986569721 17.5548193332309  C 8.00576823962581 17.5453574829478  7.80922591186561 17.6756398829964  7.67622472638357 18.069883644783  C 7.53086348308898 18.5000339153348  6.4217160394453 21.2543131534344  6.4217160394453 21.2543131534344  C 6.4217160394453 21.2543131534344  7.06705106789502 21.2535853187974  7.40129488481216 21.2581949381656  C 8.4693083310558 21.2727516309089  11.4875954553269 21.2273832718602  12.5554348162493 21.2543131534344  C 12.8722701010354 21.2625619459886  13.0111901874417 21.0757510557883  13.1518511270611 20.7336687763307  C 14.8925302548507 16.5049495345238  16.3336093917166 12.6473930082409  18.0871708332832 8.42886345135366  C 18.5659054668887 7.27694383230005  18.5991557632591 7.28567784794586  19.1680665933038 8.35001469899657  C 19.6588131140797 9.2680567879811  19.8165568125864 9.29685526078742  20.2630856617495 10.2585674280001  C 20.4686804262177 10.7010908873835  20.4557981124407 11.0761683370586  20.2822350470935 11.5373728854624  C 18.8312338939655 15.3927129584144  17.2639437462017 19.1580441479066  15.7406971847296 22.9573409537986  C 15.4527600632809 23.6752285175687  15.1561186757671 24.3872934042411  14.8868086836985 25.1185246030252  C 14.7720864569544 25.4297952161769  14.632470029263 25.535331238563  14.3826575931818 25.5326625115601  Z " fill-rule="nonzero" fill="url(#LinearGradient437)" stroke="none" transform="matrix(1 0 0 1 679 163 )" />
  </g>
</svg>